<?xml version="1.0" encoding="UTF-8" standalone="no"?>
<!-- Created with Inkscape (http://www.inkscape.org/) -->

<svg
   xmlns:dc="http://purl.org/dc/elements/1.1/"
   xmlns:cc="http://creativecommons.org/ns#"
   xmlns:rdf="http://www.w3.org/1999/02/22-rdf-syntax-ns#"
   xmlns:svg="http://www.w3.org/2000/svg"
   xmlns="http://www.w3.org/2000/svg"
   xmlns:xlink="http://www.w3.org/1999/xlink"
   xmlns:sodipodi="http://sodipodi.sourceforge.net/DTD/sodipodi-0.dtd"
   xmlns:inkscape="http://www.inkscape.org/namespaces/inkscape"
   width="744.09448819"
   height="1052.3622047"
   id="svg2"
   version="1.1"
   inkscape:version="0.47 r22583"
   sodipodi:docname="Sam-icon.svg">
  <defs
     id="defs4">
    <inkscape:perspective
       sodipodi:type="inkscape:persp3d"
       inkscape:vp_x="0 : 526.18109 : 1"
       inkscape:vp_y="0 : 1000 : 0"
       inkscape:vp_z="744.09448 : 526.18109 : 1"
       inkscape:persp3d-origin="372.04724 : 350.78739 : 1"
       id="perspective10" />
    <inkscape:perspective
       id="perspective2824"
       inkscape:persp3d-origin="0.5 : 0.33333333 : 1"
       inkscape:vp_z="1 : 0.5 : 1"
       inkscape:vp_y="0 : 1000 : 0"
       inkscape:vp_x="0 : 0.5 : 1"
       sodipodi:type="inkscape:persp3d" />
    <inkscape:perspective
       id="perspective2862"
       inkscape:persp3d-origin="0.5 : 0.33333333 : 1"
       inkscape:vp_z="1 : 0.5 : 1"
       inkscape:vp_y="0 : 1000 : 0"
       inkscape:vp_x="0 : 0.5 : 1"
       sodipodi:type="inkscape:persp3d" />
    <inkscape:perspective
       id="perspective3697"
       inkscape:persp3d-origin="0.5 : 0.33333333 : 1"
       inkscape:vp_z="1 : 0.5 : 1"
       inkscape:vp_y="0 : 1000 : 0"
       inkscape:vp_x="0 : 0.5 : 1"
       sodipodi:type="inkscape:persp3d" />
  </defs>
  <sodipodi:namedview
     id="base"
     pagecolor="#ffffff"
     bordercolor="#666666"
     borderopacity="1.0"
     inkscape:pageopacity="0.0"
     inkscape:pageshadow="2"
     inkscape:zoom="0.79851611"
     inkscape:cx="859.74706"
     inkscape:cy="528.43514"
     inkscape:document-units="px"
     inkscape:current-layer="layer1"
     showgrid="false"
     showguides="true"
     inkscape:guide-bbox="true"
     inkscape:window-width="1920"
     inkscape:window-height="1144"
     inkscape:window-x="-4"
     inkscape:window-y="-4"
     inkscape:window-maximized="1">
    <sodipodi:guide
       orientation="1,0"
       position="256.075,602.6315"
       id="guide2836" />
    <sodipodi:guide
       orientation="0,1"
       position="283.26077,631.63515"
       id="guide2838" />
    <sodipodi:guide
       orientation="1,0"
       position="298.13444,593.29414"
       id="guide2840" />
    <sodipodi:guide
       orientation="0,1"
       position="295.98602,588.66677"
       id="guide2842" />
  </sodipodi:namedview>
  <metadata
     id="metadata7">
    <rdf:RDF>
      <cc:Work
         rdf:about="">
        <dc:format>image/svg+xml</dc:format>
        <dc:type
           rdf:resource="http://purl.org/dc/dcmitype/StillImage" />
        <dc:title></dc:title>
      </cc:Work>
    </rdf:RDF>
  </metadata>
  <g
     inkscape:label="Layer 1"
     inkscape:groupmode="layer"
     id="layer1">
    <path
       transform="matrix(0.80837975,0,0,0.79127954,154.32451,153.01228)"
       d="m 298.13443,442.21121 a 21.02972,21.48419 0 1 1 -42.05944,0 21.02972,21.48419 0 1 1 42.05944,0 z"
       sodipodi:ry="21.48419"
       sodipodi:rx="21.02972"
       sodipodi:cy="442.21121"
       sodipodi:cx="277.10471"
       id="path3754"
       style="fill:#000000;fill-rule:evenodd;stroke:none"
       sodipodi:type="arc" />
    <g
       id="g3705"
       transform="translate(166.4219,80.226663)">
      <path
         sodipodi:nodetypes="ccsssscsscccc"
         id="path3663"
         d="m 341.06642,392.81427 0,14.00945 c 0,0 1.86793,0 2.54718,0 0.67924,0 0.58976,0.59962 0.58976,1.0215 0,0.42189 0,2.79926 0,3.3936 0,0.59434 -0.26131,0.31877 -1.18969,0.31877 -0.92838,0 -1.52272,0 -1.52272,0 0,0 0,1.80387 0,2.48312 0,0.67924 -0.6443,0.4162 -1.55328,0.4162 -0.90898,0 -12.37126,0 -12.37126,0 l -13.07548,-23.42566 0.0849,-8.15096 26.49059,9.93398 z"
         style="fill:#ffd5d5;fill-opacity:1;stroke:none" />
      <path
         id="path3659"
         d="m 317.8125,368.96875 c -0.59434,0 -1.53125,0.3125 -1.53125,0.3125 l -1.4375,9.4375 -16.71875,-1.03125 c 0,0 40.46993,17.15625 43.78125,17.15625 3.31133,0 12.65625,-5.6875 12.65625,-5.6875 l -14.1875,-5.6875 0,-9.34375 c 0,-2.03774 -3.88208,-5 -5.75,-5 -1.86793,0 -8.82842,1.34375 -10.78125,1.34375 -1.95284,0 -5.43691,-1.5 -6.03125,-1.5 z m -5.875,18.15625 c 0.0849,0.0849 -0.92865,16.64151 -0.84375,18 0.0849,1.35849 1.00471,5.25708 5.25,7.125 4.24529,1.86793 12.84375,2.21875 12.84375,2.21875 l 0,-11.8125 -17.25,-15.53125 z"
         style="fill:#000000;fill-opacity:1;stroke:none" />
      <path
         sodipodi:nodetypes="cccsssssscccssccccsssscsscccc"
         d="m 315.93432,384.4086 -0.33962,6.62265 12.05662,22.1604 c 0,0 10.01888,0.16981 10.78303,0.16981 0.76415,0 1.74056,-0.42453 1.74056,-0.97642 0,-0.55188 -0.21226,-2.08019 0.29717,-2.08019 0.50944,0 1.95284,0 2.46227,0 0.50944,0 0.25472,-1.27359 0.25472,-1.78302 0,-0.50944 -1.47061,-0.61709 -2.17871,-0.61709 -0.70809,0 -5.97224,-1.16593 -5.97224,-1.16593 l 4.58491,0 0,-4.33019 c 0,0 -6.79246,0 -9.67926,-1.61321 -2.8868,-1.61321 -5.43397,-5.09435 -6.02831,-7.3868 -0.59434,-2.29246 -0.76415,-6.02831 -0.76415,-6.02831 l -7.21699,-2.9717 z m 25.1321,8.40567 0,14.00945 c 0,0 1.86793,0 2.54718,0 0.67924,0 0.58976,0.59962 0.58976,1.0215 0,0.42189 0,2.79926 0,3.3936 0,0.59434 -0.26131,0.31877 -1.18969,0.31877 -0.92838,0 -1.52272,0 -1.52272,0 0,0 0,1.80387 0,2.48312 0,0.67924 -0.6443,0.4162 -1.55328,0.4162 -0.90898,0 -12.37126,0 -12.37126,0 l -13.07548,-23.42566 0.0849,-8.15096 26.49059,9.93398 z"
         style="fill:#000000;fill-opacity:1;stroke:none"
         id="path3676" />
      <path
         id="path3679"
         d="m 325.86829,389.33313 c 0,0 -0.25471,4.92453 2.03774,7.3868 2.29246,2.46227 6.28303,3.05661 7.64152,3.05661 1.35849,0 3.90566,-0.42453 3.90566,-0.42453 l -0.0849,-4.50001 -1.01887,-0.25471 c 0,0 -1.86793,0.93396 -3.82076,0.59434 -1.95283,-0.33963 -3.22642,-3.22642 -3.22642,-3.22642 l -5.43397,-2.63208 z"
         style="fill:#cccccc;fill-opacity:1;stroke:none" />
      <path
         sodipodi:nodetypes="ccccccscc"
         id="path3666"
         d="m 315.34375,374.96875 -0.5,3.84375 25.625,4.84375 -0.0937,-6.625 -25.03125,-2.0625 z m -2.375,14.1875 c 0,0 14.18691,21.99115 14.78125,21.90625 0.59434,-0.0849 0.59375,-7.875 0.59375,-7.875 l -15.375,-14.03125 z"
         style="fill:#4d4d4d;fill-opacity:1;stroke:none" />
      <path
         id="path3687"
         d="m 326.46263,390.18219 c 0,0 4.07548,1.69811 4.58491,2.63208 0.50944,0.93396 0.93397,3.65094 1.52831,4.07547 0.59434,0.42453 0.59434,1.27359 -0.0849,1.35849 -0.67924,0.0849 -4.16038,-1.69811 -5.17925,-3.31132 -1.01887,-1.61321 -0.84906,-4.66982 -0.84906,-4.75472 z"
         style="fill:#ffffff;fill-opacity:1;stroke:none" />
    </g>
    <image
       sodipodi:absref="C:\projects\fd\FD3\External\Plugins\SamHaXePanel\Resources\.\inkscape_pasted_image_20100513_114726.png"
       xlink:href=".\inkscape_pasted_image_20100513_114726.png"
       width="48"
       height="48"
       id="image3699"
       x="473.59027"
       y="344.41571" />
    <g
       id="g3756"
       transform="translate(1.3677199,-1.3677218)">
      <path
         transform="matrix(0.74334231,0,0,0.72761789,170.97897,182.5319)"
         d="m 298.13443,442.21121 c 0,11.86539 -9.41533,21.48419 -21.02972,21.48419 -11.6144,0 -21.02972,-9.6188 -21.02972,-21.48419 0,-11.86539 9.41532,-21.48419 21.02972,-21.48419 11.61439,0 21.02972,9.6188 21.02972,21.48419 z"
         sodipodi:ry="21.48419"
         sodipodi:rx="21.02972"
         sodipodi:cy="442.21121"
         sodipodi:cx="277.10471"
         id="path2844"
         style="fill:#ffcc00;fill-rule:evenodd;stroke:none"
         sodipodi:type="arc" />
      <path
         sodipodi:type="arc"
         style="fill:#aa8800;fill-rule:evenodd;stroke:none"
         id="path3752"
         sodipodi:cx="277.10471"
         sodipodi:cy="442.21121"
         sodipodi:rx="21.02972"
         sodipodi:ry="21.48419"
         d="m 298.13443,442.21121 c 0,11.86539 -9.41533,21.48419 -21.02972,21.48419 -11.6144,0 -21.02972,-9.6188 -21.02972,-21.48419 0,-11.86539 9.41532,-21.48419 21.02972,-21.48419 11.61439,0 21.02972,9.6188 21.02972,21.48419 z"
         transform="matrix(0.71327625,0,0,0.69818783,178.67814,196.17848)" />
    </g>
    <g
       id="g3760"
       transform="matrix(0.30719386,0,0,0.29951845,286.74672,393.37915)">
      <path
         id="path3703"
         d="m 310.15625,317.5 c -2.40417,0 -12.03125,9.875 -12.03125,9.875 l 0,40.59375 c 0,0 5.8912,0.003 8.5625,-0.53125 2.67129,-0.53426 13.34375,-2.9375 13.34375,-2.9375 -1.94998,18.82383 -9.10091,34.68051 -16.03125,47.8125 0,0 14.70277,-4.26226 20.3125,-10.40625 2.42323,-2.65401 8.28125,-11.21875 8.28125,-11.21875 L 325.65625,362.90625 332.875,360.5 c 2.40417,-0.80138 9.875,-5.875 9.875,-5.875 l -21.375,-5.34375 c 0,0 -5.60185,-21.8993 -6.9375,-25.90625 -1.33565,-4.00694 -1.87708,-5.875 -4.28125,-5.875 z m 6.46875,49.34375 -18.5,3.46875 0,3.375 c 0,0 1.23018,-0.61875 3.03125,0.53125 3.26845,2.08694 7.12843,6.55414 9.96875,4.90625 6.8899,-3.99738 5.5,-12.28125 5.5,-12.28125 z m -12.125,23.1875 c 0,0 -1.7125,0.93541 -2.5625,1.21875 -0.85,0.28333 -3.8125,0.28125 -3.8125,0.28125 l 0,5.28125 c 0,0 3.24166,-1.11805 4.375,-2.0625 1.13334,-0.94445 2.18889,-4.71875 2,-4.71875 z"
         style="fill:#000000;fill-opacity:1;stroke:none" />
      <path
         style="fill:#000000;fill-opacity:1;stroke:none"
         d="m 286.10319,317.5 c 2.40417,0 12.03125,9.875 12.03125,9.875 l 0,40.59375 c 0,0 -5.8912,0.003 -8.5625,-0.53125 -2.67129,-0.53426 -13.34375,-2.9375 -13.34375,-2.9375 1.94998,18.82383 9.10091,34.68051 16.03125,47.8125 0,0 -14.70277,-4.26226 -20.3125,-10.40625 -2.42323,-2.65401 -8.28125,-11.21875 -8.28125,-11.21875 l 6.9375,-27.78125 -7.21875,-2.40625 c -2.40417,-0.80138 -9.875,-5.875 -9.875,-5.875 l 21.375,-5.34375 c 0,0 5.60185,-21.8993 6.9375,-25.90625 1.33565,-4.00694 1.87708,-5.875 4.28125,-5.875 z m -6.46875,49.34375 18.5,3.46875 0,3.375 c 0,0 -1.23018,-0.61875 -3.03125,0.53125 -3.26845,2.08694 -7.12843,6.55414 -9.96875,4.90625 -6.8899,-3.99738 -5.5,-12.28125 -5.5,-12.28125 z m 12.125,23.1875 c 0,0 1.7125,0.93541 2.5625,1.21875 0.85,0.28333 3.8125,0.28125 3.8125,0.28125 l 0,5.28125 c 0,0 -3.24166,-1.11805 -4.375,-2.0625 -1.13334,-0.94445 -2.18889,-4.71875 -2,-4.71875 z"
         id="path3737" />
      <path
         id="path3739"
         d="m 309.96875,318.625 c -1.22778,-0.37778 -11.84375,9.3375 -11.84375,10.1875 0,0.85 -1.93333,4.7194 -2.5,4.625 -0.56667,-0.0944 -5.19653,-3.85764 -3.96875,-1.96875 1.22778,1.8889 6.46875,7.9375 6.46875,7.9375 0,0 12.12291,-17.46458 12.40625,-18.03125 0.28333,-0.56666 0.19306,-2.27778 -0.5625,-2.75 z M 274.875,350.71875 c -1.32223,-0.18889 -16.53403,4.37153 -16.15625,4.84375 0.37778,0.47223 7.54721,3.85972 13.875,5.9375 6.3278,2.07778 25.53125,3.59375 25.53125,3.59375 0,0 19.20345,-1.51597 25.53125,-3.59375 6.32779,-2.07778 13.49722,-5.46527 13.875,-5.9375 0.37778,-0.47222 -14.80277,-5.03264 -16.125,-4.84375 0,0 -8.14167,5.40069 -10.125,6.15625 -1.98334,0.75556 -13.15625,3.21875 -13.15625,3.21875 0,0 -11.17291,-2.46319 -13.15625,-3.21875 -1.98333,-0.75556 -10.09375,-6.15625 -10.09375,-6.15625 z m 38.875,18.625 c -0.10206,-10e-4 -0.20727,0.0105 -0.3125,0.0312 -0.28061,0.0554 -0.55513,0.20873 -0.8125,0.4375 -1.83021,1.25827 -3.10201,6.41628 -1.84375,6.1875 1.25827,-0.22878 3.89623,-4.02298 4.125,-5.28125 0.15013,-0.82573 -0.4418,-1.36506 -1.15625,-1.375 z m -23.78125,1.375 c -2.05898,0 -4.12207,6.17689 -2.40625,6.0625 1.71581,-0.11438 5.28125,-3.53243 5.28125,-4.21875 0,-0.68633 -1.73112,-1.50058 -2.875,-1.84375 z"
         style="fill:#4d4d4d;fill-opacity:1;stroke:none" />
    </g>
    <path
       style="fill:#ffcc00;stroke:none;stroke-width:1px;stroke-linecap:butt;stroke-linejoin:miter;stroke-opacity:1;fill-opacity:0.39215687"
       d="M 382.96875 490.3125 C 382.75696 490.04777 384.1875 498.46875 384.1875 498.46875 L 385.09375 498 L 382.96875 490.3125 z M 385.5 498.3125 L 385.25 498.6875 C 385.25 498.6875 389.37241 500.18491 389.53125 500.34375 C 389.6901 500.5026 390.875 499.6875 390.875 499.6875 L 385.5 498.3125 z M 384.09375 506.375 C 384.09375 506.375 383.49645 508.28561 382.4375 508.65625 C 381.97675 508.81751 381.15625 509.58597 381.15625 510.0625 C 380.82365 511.48179 380.59816 513.26333 380.28125 514.6875 C 380.1224 515.05813 379.46875 515.78125 379.46875 515.78125 L 380.6875 515.3125 C 380.6875 515.3125 382.44624 511.92086 383.1875 509.75 C 383.70221 508.24262 384.30554 506.48089 384.09375 506.375 z M 378.5625 506.46875 C 378.5625 506.46875 378.2066 507.30472 378.3125 507.78125 C 378.41839 508.25778 379.25 509.53125 379.25 509.53125 C 379.25 509.53125 379.83679 508.22653 379.625 507.75 C 379.41321 507.27347 378.5625 506.46875 378.5625 506.46875 z "
       id="path3767" />
  </g>
</svg>
